P2
#origin 4 4
9 9
255
000 000 000 000 000 000 000 000 000 
000 000 000 000 000 000 000 000 000 
000 255 255 255 255 255 255 000 000 
000 255 000 255 255 255 255 000 000 
000 255 255 000 255 255 255 000 000 
000 255 255 255 000 255 255 000 000 
000 255 255 255 255 000 255 000 000 
000 000 000 000 000 000 000 000 000 
000 000 000 000 000 000 000 000 000 
